<svg xmlns="http://www.w3.org/2000/svg" viewBox="0 0 324.33 53.37"  stroke="#fff">
    <path fill="none" d="M4.89,52.87V18L52.89.53l47.44,17.89V52.87L90.44,23.64l-37.55-13L15.44,22.87Zm4.29-12.2L5.27,37.06l6.33-4.25L5.35,26.72l10.09-3.85L4.89,18m95.44.56-10.09,5,9.51,4-5.66,6,5.83,4.31-3.41,3.56M52.89,10.63l-9.1-6.26-3.57,9.69-8.9-5.24-4.1,9.7-8.59-5.11-3.19,9.46m75,.34-3.75-9.63L78,19,74,8.77,65,14.33,61.65,4.27l-8.76,6.36m0-10.1V10.71"/>
    <path fill="#fff" d="M234.11,50.7a9.19,9.19,0,0,1-2.4-.24V43.2a11.07,11.07,0,0,0,1.92.18,3.8,3.8,0,0,0,3.06-1,6.15,6.15,0,0,0,1-3.54L239,8.64h23.58v42h-8.4V16h-7.26L246,39.48q-.24,5.94-3,8.58C241.15,49.83,238.19,50.7,234.11,50.7Zm32.16-11.57v-19q0-5.76,3.3-8.94T279,8q6.12,0,9.42,3.18t3.3,8.94v19c0,3.83-1.1,6.82-3.3,8.93s-5.34,3.18-9.42,3.18-7.22-1.05-9.42-3.18S266.27,43,266.27,39.13Zm17,.29V19.86q0-4.5-4.32-4.5t-4.32,4.5V39.42q0,4.5,4.32,4.5T283.31,39.42ZM323,50.64h-9l-6.78-18.3-3.42,5.34v13h-8.4v-42h8.4v17.1l10.5-17.1h8.52L313,24.24Zm-197.16,0h-8.4V16h-8.76V8.64h25.92V16h-8.76Zm29.39,0H137V17h18.29V22.9H143.69v7.78h9.22v5.85h-9.22v8.26h11.57Zm8.26,0H157l7.77-17.23L157.37,17h7.25l4.32,10.56L173.41,17h6.48l-7.44,16.37,7.77,17.23H173l-4.7-11.47Zm26.35,0h-6.72V17h6.72V30.68h7.2V17h6.72v33.6h-6.72V36.53h-7.2Zm18-9.21V26.26a9.46,9.46,0,0,1,2.64-7.15q2.64-2.55,7.53-2.55t7.54,2.55a9.46,9.46,0,0,1,2.64,7.15V41.43a9.47,9.47,0,0,1-2.64,7.15q-2.64,2.55-7.54,2.55t-7.53-2.55A9.47,9.47,0,0,1,207.92,41.43Zm13.63.24V26q0-3.6-3.46-3.6T214.64,26V41.67q0,3.6,3.45,3.6T221.55,41.67Z"/>
    <line y1="52.87" x2="324.33" y2="52.87"/>
</svg>